<svg width="80" height="30" viewBox="0 0 80 30" xmlns="http://www.w3.org/2000/svg" xmlns:xlink="http://www.w3.org/1999/xlink"><defs><path d="M31.207 7.558v3.908h11.526v2.281H34.29c-.939 0-1.687.3-2.245.896-.558.597-.837 1.326-.837 2.186v3.108c0 .878.293 1.612.877 2.2.584.588 1.32.882 2.205.882h6.907V19.39h-6.124v-2.217h7.661v5.845h3.777v-12.38c0-.878-.288-1.61-.863-2.199-.576-.588-1.315-.882-2.218-.882H31.207z" id="a"/><path d="M64.699 7.558v3.908h11.526v2.281H67.78c-.939 0-1.686.3-2.245.896-.558.597-.836 1.326-.836 2.186v3.108c0 .878.292 1.612.876 2.2.585.588 1.32.882 2.205.882h6.907V19.39h-6.124v-2.217h7.662v5.845H80v-12.38c0-.878-.288-1.61-.863-2.199-.575-.588-1.315-.882-2.218-.882H64.7z" id="b"/><path id="c" d="M0 23.019h4.128l7.684-15.024-2.19-4.036z"/><path d="M7.357 20.152h2.728c.84 0 1.61-.473 1.99-1.223l.425-.842 2.678 4.932h4.79L12.689 9.613 7.357 20.152z" id="d"/><path d="M19.968 3.96v16.504c0 1.411 1.088 2.555 2.429 2.555h7.255v-3.534h-5.9V6.94l-1.618-2.98h-2.166z" id="e"/><path d="M5.98.117c-.644 0-1.167.523-1.167 1.167v1.23h9.685v-1.23c0-.644-.523-1.167-1.167-1.167h-7.35z" id="f"/><path d="M47.491 7.046l6.71 13.035 1.227-3.14a3.37 3.37 0 00-.177-2.835l-3.83-7.06h-3.93z" id="g"/><path id="h" d="M59.881 7.046l-8.576 22.36h3.823l8.705-22.36z"/></defs><g fill="#FFF" fill-rule="evenodd"><use xlink:href="#a"/><use xlink:href="#b"/><use xlink:href="#c"/><use xlink:href="#d"/><use xlink:href="#e"/><use xlink:href="#f"/><use xlink:href="#g"/><use xlink:href="#h"/></g></svg>