<svg width="319" height="80" viewBox="0 0 319 80" xmlns="http://www.w3.org/2000/svg"><g fill="none" fill-rule="evenodd"><path fill="#F9BE00" d="M29.817 49.893h19.607V30.106H29.817z"/><path d="M20.406 69.024h39.635c4.59 0 8.324-3.768 8.324-8.4v-40h-9.123v39.193H20.406v9.207zm38.427-48.842v-9.207H19.2c-4.59 0-8.324 3.768-8.324 8.4v40h9.123V20.182h38.835z" fill="#FFF"/><path fill="#08B8DE" d="M68.365 10.975H79.24V0H68.365z"/><path fill="#E40065" d="M0 80h10.875V69.023H0z"/><path d="M100.1 70V57.32h4.3V56h-10v1.32h4.3V70h1.4zm7.42 0v-5.24c0-2.68 1.48-3.72 3.24-3.72 1.74 0 2.72 1.04 2.72 2.82V70h1.32v-6.14c0-2.5-1.48-4.1-3.92-4.1-1.42 0-2.58.54-3.36 1.8V56h-1.32v14h1.32zm14.56.24c2.02 0 3.56-.94 4.4-2.3l-1.16-.68c-.54.96-1.64 1.7-3.22 1.7-2.12 0-3.7-1.26-3.98-3.3h8.78c.02-.2.04-.42.04-.62 0-2.74-1.9-5.28-4.96-5.28-3.1 0-5.22 2.3-5.22 5.24 0 3.02 2.16 5.24 5.32 5.24zm3.5-5.86h-7.46c.26-1.96 1.76-3.34 3.86-3.34 1.72 0 3.32 1.14 3.6 3.34zm8.74 5.62l1.3-3.44h6.64l1.3 3.44h1.48l-5.38-14h-1.44l-5.38 14h1.48zm7.44-4.76h-5.64l2.82-7.5 2.82 7.5zm6.2 4.76V55.4h-1.32V70h1.32zm7.36.24c1.78 0 3.2-.86 4.04-2.2V70h1.32V60h-1.32v1.96c-.84-1.34-2.26-2.2-4.04-2.2-2.82 0-5.16 2.28-5.16 5.24 0 2.96 2.34 5.24 5.16 5.24zm.1-1.28c-2.22 0-3.94-1.74-3.94-3.96 0-2.22 1.72-3.96 3.94-3.96 2.22 0 3.94 1.74 3.94 3.96 0 2.22-1.72 3.96-3.94 3.96zm12.38 1.96L172.08 60h-1.4l-3.24 8.38-3.76-8.38h-1.4l4.48 10.06-.26.62c-.54 1.3-1.44 2.22-2.74 2.08V74c1.8.14 3.28-1.16 4.04-3.08zm10.44-.68c1.78 0 3.2-.86 4.04-2.2V70h1.32V60h-1.32v1.96c-.84-1.34-2.26-2.2-4.04-2.2-2.82 0-5.16 2.28-5.16 5.24 0 2.96 2.34 5.24 5.16 5.24zm.1-1.28c-2.22 0-3.94-1.74-3.94-3.96 0-2.22 1.72-3.96 3.94-3.96 2.22 0 3.94 1.74 3.94 3.96 0 2.22-1.72 3.96-3.94 3.96zM197.7 70c2.16 0 3.9-1.74 3.9-3.9 0-1.56-.92-2.8-2.24-3.36 1-.62 1.64-1.68 1.64-2.98 0-2.06-1.68-3.76-3.76-3.76h-5.64v14h6.1zm-.46-7.8H193v-4.88h4.24c1.3 0 2.36 1.1 2.36 2.44 0 1.36-1.06 2.44-2.36 2.44zm.46 6.48H193v-5.16h4.7c1.38 0 2.5 1.16 2.5 2.58 0 1.44-1.12 2.58-2.5 2.58zm7.42 1.32V55.4h-1.32V70h1.32zm7.46.24c2.92 0 5.26-2.28 5.26-5.24 0-2.96-2.34-5.24-5.26-5.24s-5.26 2.28-5.26 5.24c0 2.96 2.34 5.24 5.26 5.24zm0-1.28c-2.22 0-3.94-1.74-3.94-3.96 0-2.22 1.72-3.96 3.94-3.96 2.22 0 3.94 1.74 3.94 3.96 0 2.22-1.72 3.96-3.94 3.96zm12.12 1.28c1.96 0 3.66-1.02 4.48-2.6l-1.1-.64c-.64 1.16-1.86 1.96-3.38 1.96-2.22 0-3.94-1.74-3.94-3.96 0-2.22 1.72-3.96 3.94-3.96 1.5 0 2.76.78 3.3 1.96l1.08-.62c-.72-1.58-2.4-2.62-4.38-2.62-3.02 0-5.26 2.28-5.26 5.24 0 2.96 2.24 5.24 5.26 5.24zm7.7-.24v-4.82l5 4.82h1.76l-5.36-5.2 5.16-4.8h-1.8l-4.76 4.42V56h-1.32v14h1.32zm21.96 0v-1.32h-6.8V63.6h6.2v-1.32h-6.2v-4.96h6.7V56h-8.1v14h8.2zm2.78 0l3.12-4.12 3.12 4.12h1.58l-3.9-5.18L264.7 60h-1.58l-2.86 3.78L257.4 60h-1.58l3.66 4.82-3.92 5.18h1.58zm10.94 4v-5.96c.84 1.34 2.26 2.2 4.04 2.2 2.82 0 5.16-2.28 5.16-5.24 0-2.96-2.34-5.24-5.16-5.24-1.78 0-3.2.86-4.04 2.2V60h-1.32v14h1.32zm3.94-5.04c-2.22 0-3.94-1.74-3.94-3.96 0-2.22 1.72-3.96 3.94-3.96 2.22 0 3.94 1.74 3.94 3.96 0 2.22-1.72 3.96-3.94 3.96zM280.8 70V55.4h-1.32V70h1.32zm7.46.24c2.92 0 5.26-2.28 5.26-5.24 0-2.96-2.34-5.24-5.26-5.24S283 62.04 283 65c0 2.96 2.34 5.24 5.26 5.24zm0-1.28c-2.22 0-3.94-1.74-3.94-3.96 0-2.22 1.72-3.96 3.94-3.96 2.22 0 3.94 1.74 3.94 3.96 0 2.22-1.72 3.96-3.94 3.96zm8.78 1.04v-5.56c0-2.48 1.56-3.32 3.16-3.32v-1.28c-1.28 0-2.46.42-3.16 1.82V60h-1.32v10h1.32zm9.68.24c2.02 0 3.56-.94 4.4-2.3l-1.16-.68c-.54.96-1.64 1.7-3.22 1.7-2.12 0-3.7-1.26-3.98-3.3h8.78c.02-.2.04-.42.04-.62 0-2.74-1.9-5.28-4.96-5.28-3.1 0-5.22 2.3-5.22 5.24 0 3.02 2.16 5.24 5.32 5.24zm3.5-5.86h-7.46c.26-1.96 1.76-3.34 3.86-3.34 1.72 0 3.32 1.14 3.6 3.34zM315 70v-5.56c0-2.48 1.56-3.32 3.16-3.32v-1.28c-1.28 0-2.46.42-3.16 1.82V60h-1.32v10H315z" fill="#B3B3B3" fill-rule="nonzero"/><path d="M98.56 34l1.26-3.78h8.37l1.26 3.78h4.5l-7.38-21h-5.13l-7.35 21h4.47zm8.34-7.65h-5.76l2.88-8.58 2.88 8.58zM119.68 34V12.1h-3.87V34h3.87zm10.05.42c2.19 0 3.81-.84 4.89-2.19V34h3.87V19h-3.87v1.77c-1.08-1.35-2.7-2.19-4.89-2.19-3.99 0-7.29 3.45-7.29 7.92s3.3 7.92 7.29 7.92zm.72-3.69c-2.37 0-4.14-1.71-4.14-4.23 0-2.52 1.77-4.23 4.14-4.23 2.4 0 4.17 1.71 4.17 4.23 0 2.52-1.77 4.23-4.17 4.23zM150.46 34l5.46-15h-4.14l-3.33 10.08-3.9-10.08h-4.23l6.15 14.52c-.72 2.01-1.8 2.91-3.93 2.88V40c3.81.21 6.36-1.68 7.92-6zm13.8.42c2.19 0 3.81-.84 4.89-2.19V34h3.87V19h-3.87v1.77c-1.08-1.35-2.7-2.19-4.89-2.19-3.99 0-7.29 3.45-7.29 7.92s3.3 7.92 7.29 7.92zm.72-3.69c-2.37 0-4.14-1.71-4.14-4.23 0-2.52 1.77-4.23 4.14-4.23 2.4 0 4.17 1.71 4.17 4.23 0 2.52-1.77 4.23-4.17 4.23zm18.9 3.69c4.47 0 7.62-2.4 7.62-6.33 0-4.29-3.54-5.4-6.87-6.45-3.18-.96-3.99-1.65-3.99-2.94 0-1.2 1.02-2.1 2.76-2.1 2.13 0 3.27 1.11 4.02 2.7l3.48-2.01c-1.41-2.94-4.05-4.71-7.5-4.71-3.6 0-6.9 2.28-6.9 6.24 0 3.99 3.12 5.34 6.33 6.27 3.12.9 4.53 1.5 4.53 3.06 0 1.17-.87 2.22-3.36 2.22-2.61 0-4.08-1.26-4.83-3.21l-3.54 2.07c1.14 3.12 3.96 5.19 8.25 5.19zm17.28 0c2.94 0 5.49-1.56 6.78-3.9l-3.36-1.92c-.6 1.23-1.89 1.98-3.45 1.98-2.31 0-4.02-1.71-4.02-4.08 0-2.4 1.71-4.11 4.02-4.11 1.53 0 2.82.78 3.42 2.01l3.33-1.95c-1.23-2.31-3.78-3.87-6.72-3.87-4.56 0-7.92 3.45-7.92 7.92s3.36 7.92 7.92 7.92zm15.45 0c2.19 0 3.81-.84 4.89-2.19V34h3.87V19h-3.87v1.77c-1.08-1.35-2.7-2.19-4.89-2.19-3.99 0-7.29 3.45-7.29 7.92s3.3 7.92 7.29 7.92zm.72-3.69c-2.37 0-4.14-1.71-4.14-4.23 0-2.52 1.77-4.23 4.14-4.23 2.4 0 4.17 1.71 4.17 4.23 0 2.52-1.77 4.23-4.17 4.23zM232.75 34v-8.1c0-2.61 1.41-3.72 3.3-3.72 1.74 0 2.97 1.05 2.97 3.09V34h3.87v-9.21c0-3.99-2.49-6.21-5.67-6.21-2.01 0-3.57.75-4.47 2.1V19h-3.87v15h3.87z" fill="#FFF" fill-rule="nonzero"/></g></svg>